<?xml version="1.0" standalone="no"?><!DOCTYPE svg PUBLIC "-//W3C//DTD SVG 1.1//EN" "http://www.w3.org/Graphics/SVG/1.1/DTD/svg11.dtd"><svg t="1618981383779" class="icon" viewBox="0 0 1024 1024" version="1.1" xmlns="http://www.w3.org/2000/svg" p-id="3003" xmlns:xlink="http://www.w3.org/1999/xlink" width="40" height="40"><defs><style type="text/css"></style></defs><path d="M443.702957 499.059954A241.781503 241.781503 0 0 1 404.818509 411.819205a411.277814 411.277814 0 0 0-398.81485 411.277814 41.875559 41.875559 0 0 0 84.249637 0 327.028177 327.028177 0 0 1 327.028177-327.028177z m199.407425-19.940743a121.638529 121.638529 0 1 1 121.638529-121.638529 121.638529 121.638529 0 0 1-123.134085 119.644455z m205.888166-121.638529a205.888166 205.888166 0 1 0-205.389647 205.888166 205.888166 205.888166 0 0 0 203.894092-207.383722z m128.617789 439.194853h-104.688898v-104.190379a42.374078 42.374078 0 1 0-84.249637 0v102.694824h-102.694824a42.374078 42.374078 0 1 0 0 84.249637h102.694824v102.694824a42.374078 42.374078 0 0 0 84.249637 0v-102.694824h102.694824a42.374078 42.374078 0 0 0 0-84.249637z m-154.540754-192.428165A411.277814 411.277814 0 0 0 230.337012 972.652588a41.875559 41.875559 0 0 0 84.249637 0 327.028177 327.028177 0 0 1 327.028177-327.028177 331.016326 331.016326 0 0 1 65.804451 6.480741 260.725208 260.725208 0 0 1 113.662232-49.353337zM404.818509 411.320687a244.772614 244.772614 0 0 1-4.486667-84.748156 121.638529 121.638529 0 1 1 121.638529-182.457794A239.787429 239.787429 0 0 1 604.225934 116.197698a205.888166 205.888166 0 1 0-199.407425 295.122989z" fill="#bfbfbf" p-id="3004"></path></svg>