<?xml version="1.0" standalone="no"?><!DOCTYPE svg PUBLIC "-//W3C//DTD SVG 1.1//EN" "http://www.w3.org/Graphics/SVG/1.1/DTD/svg11.dtd"><svg t="1618976888149" class="icon" viewBox="0 0 1024 1024" version="1.1" xmlns="http://www.w3.org/2000/svg" p-id="8901" xmlns:xlink="http://www.w3.org/1999/xlink" width="200" height="200"><defs><style type="text/css"></style></defs><path d="M253.76 103.68l-118.4 98.56a38.72 38.72 0 0 0-13.76 36.16c11.2 73.6 57.28 280 202.88 429.76a1088 1088 0 0 0 410.24 256 38.08 38.08 0 0 0 37.12-10.56l138.24-144.96a40 40 0 0 0 0-55.36l-120-123.2a38.4 38.4 0 0 0-54.72 0l-82.56 84.16a38.08 38.08 0 0 1-45.44 7.04 622.72 622.72 0 0 1-256-263.68 39.36 39.36 0 0 1 7.04-45.12c20.8-22.08 52.48-54.08 75.2-77.12a40 40 0 0 0 0-55.36l-128-134.72a37.76 37.76 0 0 0-51.84-1.6z" p-id="8902" fill="#707070"></path></svg>