<?xml version="1.0" standalone="no"?><!DOCTYPE svg PUBLIC "-//W3C//DTD SVG 1.1//EN" "http://www.w3.org/Graphics/SVG/1.1/DTD/svg11.dtd"><svg t="1619614623980" class="icon" viewBox="0 0 1024 1024" version="1.1" xmlns="http://www.w3.org/2000/svg" p-id="7830" width="100" height="100" xmlns:xlink="http://www.w3.org/1999/xlink"><defs><style type="text/css"></style></defs><path d="M391.6 576.1c31.5 22.2 111.2 50.1 118.6 128.2s-53.8 117.1-24.1 169.2c29.7 52 129.8 83.6 215 9.2 85.3-74.3 170.6-377.3 16.7-505.6C564 249 349 330.8 332.3 427.4c-16.7 96.7 59.3 148.7 59.3 148.7zM269 138.1c-62.3-11.5-120.7 22.4-130.4 75.6-9.6 53.2 32.9 105.6 95.1 117 62.3 11.4 120.7-22.5 130.4-75.7 9.7-53.1-32.9-105.5-95.1-116.9zM494.6 99.8c-47.1-8.6-91.1 17-98.5 57.2-7.3 40.2 24.9 79.8 71.9 88.4 47.1 8.7 91.1-17 98.5-57.1 7.4-40.2-24.8-79.8-71.9-88.5zM687.3 121.6c-38.9-7.2-75.3 14-81.4 47.3-6 33.2 20.6 65.9 59.5 73.1 38.9 7.2 75.3-14 81.4-47.2 6.1-33.3-20.5-66.1-59.5-73.2zM837.5 219.7c-31.2-5.8-60.4 11.2-65.2 37.8-4.9 26.6 16.4 52.8 47.6 58.6 31.2 5.7 60.3-11.3 65.3-37.8 4.8-26.6-16.5-52.8-47.7-58.6z" fill="#1375FF" p-id="7831"></path></svg>