<?xml version="1.0" standalone="no"?><!DOCTYPE svg PUBLIC "-//W3C//DTD SVG 1.1//EN" "http://www.w3.org/Graphics/SVG/1.1/DTD/svg11.dtd"><svg t="1619526676282" class="icon" viewBox="0 0 1024 1024" version="1.1" xmlns="http://www.w3.org/2000/svg" p-id="2040" width="50" height="50" xmlns:xlink="http://www.w3.org/1999/xlink"><defs><style type="text/css"></style></defs><path d="M970.752 929.28c-15.872-185.856-142.848-339.968-314.88-395.776 72.192-46.592 119.808-126.976 119.808-219.648 0-144.896-117.76-262.144-262.656-262.144-145.408 0-262.656 117.248-262.656 262.144 0 92.16 47.616 173.056 119.808 219.648-172.544 55.808-299.52 209.408-314.88 395.776 0 3.072-0.512 6.144 0 10.24 1.536 16.384 15.872 29.696 32.256 29.696 18.432 0 32.768-14.848 32.768-32.768 16.896-202.24 186.88-360.448 393.216-360.448s375.296 157.696 393.216 360.448c0 17.92 14.336 32.768 32.768 32.768 16.384 0 30.72-13.312 32.256-29.696-0.512-4.608-1.024-7.168-1.024-10.24zM315.392 313.856c0-108.544 88.576-196.608 197.12-196.608s197.12 87.552 197.12 196.608-88.576 196.608-197.12 196.608-197.12-88.064-197.12-196.608z" fill="#818489" p-id="2041"></path></svg>