<?xml version="1.0" standalone="no"?><!DOCTYPE svg PUBLIC "-//W3C//DTD SVG 1.1//EN" "http://www.w3.org/Graphics/SVG/1.1/DTD/svg11.dtd"><svg t="1618982665570" class="icon" viewBox="0 0 1024 1024" version="1.1" xmlns="http://www.w3.org/2000/svg" p-id="11727" xmlns:xlink="http://www.w3.org/1999/xlink" width="40" height="40"><defs><style type="text/css"></style></defs><path d="M889.43873 856.747136a22.91743 22.91743 0 0 1-22.91743 22.429825H584.685677V731.432681a252.091725 252.091725 0 0 0-44.859649-143.84344 178.950992 178.950992 0 0 1 34.132342-45.83486 187.72788 187.72788 0 0 1 260.868613 0 175.537758 175.537758 0 0 1 54.124142 126.77727z m-408.612893-330.596111a266.232267 266.232267 0 0 0-54.124142-31.694317A233.075134 233.075134 0 0 0 532.02435 385.233214a236.488369 236.488369 0 0 0 62.413425 48.760488A268.182686 268.182686 0 0 0 515.445784 487.630239a277.447179 277.447179 0 0 0-34.619947 38.520786z m20.479405 393.497141a21.454615 21.454615 0 0 1-6.826468 15.603357 23.405034 23.405034 0 0 1-16.090961 6.826468H154.61817a22.91743 22.91743 0 0 1-22.91743-22.429825V731.432681a175.537758 175.537758 0 0 1 54.124142-126.77727 187.72788 187.72788 0 0 1 260.868613 0A175.537758 175.537758 0 0 1 501.305242 731.432681zM163.882663 292.588286a146.281465 146.281465 0 0 1 44.859649-104.83505 155.545958 155.545958 0 0 1 215.521359 0 146.281465 146.281465 0 0 1 0 209.182495 155.545958 155.545958 0 0 1-215.521359 0A146.281465 146.281465 0 0 1 163.882663 292.588286z m432.993136-167.73608a155.545958 155.545958 0 0 1 215.521359 0 146.281465 146.281465 0 0 1 0 209.182495 155.545958 155.545958 0 0 1-215.521359 0 146.281465 146.281465 0 0 1 0-209.182495z m296.951375 360.827614a267.207476 267.207476 0 0 0-78.991992-53.636537 233.075134 233.075134 0 0 0 84.84325-74.115943 223.323037 223.323037 0 0 0 40.958811-128.727689A232.58753 232.58753 0 0 0 704.636479 0.025355a238.926393 238.926393 0 0 0-136.529368 41.93402A229.6619 229.6619 0 0 0 487.164701 136.067118a237.951183 237.951183 0 0 0-170.66171-73.140733A232.58753 232.58753 0 0 0 80.502227 292.588286a223.323037 223.323037 0 0 0 40.958811 127.752479 234.537949 234.537949 0 0 0 84.843249 74.115943 265.744662 265.744662 0 0 0-78.991991 53.636537A255.017354 255.017354 0 0 0 48.320305 731.432681v187.727881A105.322655 105.322655 0 0 0 154.61817 1023.995612h323.769643a106.78547 106.78547 0 0 0 97.520976-62.90103h292.562931A105.322655 105.322655 0 0 0 974.769584 856.747136v-187.72788a255.992564 255.992564 0 0 0-80.454805-183.827041z" fill="#8a8a8a" p-id="11728"></path></svg>