<?xml version="1.0" standalone="no"?><!DOCTYPE svg PUBLIC "-//W3C//DTD SVG 1.1//EN" "http://www.w3.org/Graphics/SVG/1.1/DTD/svg11.dtd"><svg t="1618976687668" class="icon" viewBox="0 0 1024 1024" version="1.1" xmlns="http://www.w3.org/2000/svg" p-id="7919" xmlns:xlink="http://www.w3.org/1999/xlink" width="200" height="200"><defs><style type="text/css"></style></defs><path d="M912 144h-800A48 48 0 0 0 64 192v640a48 48 0 0 0 48 48h800A48 48 0 0 0 960 832V192a48 48 0 0 0-48-48z m-48 96v348.8l-156.8-118.4a32 32 0 0 0-42.88 4.16l-181.76 201.92-125.76-108.8a32 32 0 0 0-43.52 1.6L160 722.88V240z" p-id="7920" fill="#707070"></path><path d="M448 384m-80 0a80 80 0 1 0 160 0 80 80 0 1 0-160 0Z" p-id="7921" fill="#707070"></path></svg>